<?xml version="1.0" encoding="UTF-8" standalone="no"?><svg xmlns="http://www.w3.org/2000/svg" xmlns:xlink="http://www.w3.org/1999/xlink" contentScriptType="application/ecmascript" contentStyleType="text/css" height="805px" preserveAspectRatio="none" style="width:1067px;height:805px;" version="1.1" viewBox="0 0 1067 805" width="1067px" zoomAndPan="magnify"><defs><filter height="300%" id="femgqbwwes5wx" width="300%" x="-1" y="-1"><feGaussianBlur result="blurOut" stdDeviation="2.0"/><feColorMatrix in="blurOut" result="blurOut2" type="matrix" values="0 0 0 0 0 0 0 0 0 0 0 0 0 0 0 0 0 0 .4 0"/><feOffset dx="4.0" dy="4.0" in="blurOut2" result="blurOut3"/><feBlend in="SourceGraphic" in2="blurOut3" mode="normal"/></filter></defs><g><!--MD5=[6a677246b857de6a5fb69fefd23bfb34]
class C_0000159384585232022465--><rect fill="#FEFECE" filter="url(#femgqbwwes5wx)" height="48" id="C_0000159384585232022465" style="stroke: #A80036; stroke-width: 1.5;" width="96" x="254" y="244"/><ellipse cx="269" cy="260" fill="#ADD1B2" rx="11" ry="11" style="stroke: #A80036; stroke-width: 1.0;"/><path d="M271.9688,265.6406 Q271.3906,265.9375 270.75,266.0781 Q270.1094,266.2344 269.4063,266.2344 Q266.9063,266.2344 265.5781,264.5938 Q264.2656,262.9375 264.2656,259.8125 Q264.2656,256.6875 265.5781,255.0313 Q266.9063,253.375 269.4063,253.375 Q270.1094,253.375 270.75,253.5313 Q271.4063,253.6875 271.9688,253.9844 L271.9688,256.7031 Q271.3438,256.125 270.75,255.8594 Q270.1563,255.5781 269.5313,255.5781 Q268.1875,255.5781 267.5,256.6563 Q266.8125,257.7188 266.8125,259.8125 Q266.8125,261.9063 267.5,262.9844 Q268.1875,264.0469 269.5313,264.0469 Q270.1563,264.0469 270.75,263.7813 Q271.3438,263.5 271.9688,262.9219 L271.9688,265.6406 Z "/><text fill="#000000" font-family="sans-serif" font-size="12" lengthAdjust="spacingAndGlyphs" textLength="64" x="283" y="264.1543">std::string</text><line style="stroke: #A80036; stroke-width: 1.5;" x1="255" x2="349" y1="276" y2="276"/><line style="stroke: #A80036; stroke-width: 1.5;" x1="255" x2="349" y1="284" y2="284"/><!--MD5=[1cdc60e3a6a9e7fb7ca6a93eda7289a7]
class C_0001660784356362272037--><rect fill="#FEFECE" filter="url(#femgqbwwes5wx)" height="48" id="C_0001660784356362272037" style="stroke: #A80036; stroke-width: 1.5;" width="150" x="641" y="746"/><ellipse cx="656" cy="762" fill="#ADD1B2" rx="11" ry="11" style="stroke: #A80036; stroke-width: 1.0;"/><path d="M658.9688,767.6406 Q658.3906,767.9375 657.75,768.0781 Q657.1094,768.2344 656.4063,768.2344 Q653.9063,768.2344 652.5781,766.5938 Q651.2656,764.9375 651.2656,761.8125 Q651.2656,758.6875 652.5781,757.0313 Q653.9063,755.375 656.4063,755.375 Q657.1094,755.375 657.75,755.5313 Q658.4063,755.6875 658.9688,755.9844 L658.9688,758.7031 Q658.3438,758.125 657.75,757.8594 Q657.1563,757.5781 656.5313,757.5781 Q655.1875,757.5781 654.5,758.6563 Q653.8125,759.7188 653.8125,761.8125 Q653.8125,763.9063 654.5,764.9844 Q655.1875,766.0469 656.5313,766.0469 Q657.1563,766.0469 657.75,765.7813 Q658.3438,765.5 658.9688,764.9219 L658.9688,767.6406 Z "/><text fill="#000000" font-family="sans-serif" font-size="12" lengthAdjust="spacingAndGlyphs" textLength="79" x="670" y="766.1543">std::function</text><rect fill="#FFFFFF" height="15.9688" style="stroke: #000000; stroke-width: 1.0; stroke-dasharray: 2.0,2.0;" width="37" x="757" y="743"/><text fill="#000000" font-family="sans-serif" font-size="12" font-style="italic" lengthAdjust="spacingAndGlyphs" textLength="35" x="758" y="755.1387">void()</text><line style="stroke: #A80036; stroke-width: 1.5;" x1="642" x2="790" y1="778" y2="778"/><line style="stroke: #A80036; stroke-width: 1.5;" x1="642" x2="790" y1="786" y2="786"/><!--MD5=[dd5850bb6ba67f58059a0ead18b636cc]
class C_0001301893113309798603--><rect fill="#FEFECE" filter="url(#femgqbwwes5wx)" height="48" id="C_0001301893113309798603" style="stroke: #A80036; stroke-width: 1.5;" width="236" x="598" y="543.5"/><ellipse cx="613" cy="559.5" fill="#ADD1B2" rx="11" ry="11" style="stroke: #A80036; stroke-width: 1.0;"/><path d="M615.9688,565.1406 Q615.3906,565.4375 614.75,565.5781 Q614.1094,565.7344 613.4063,565.7344 Q610.9063,565.7344 609.5781,564.0938 Q608.2656,562.4375 608.2656,559.3125 Q608.2656,556.1875 609.5781,554.5313 Q610.9063,552.875 613.4063,552.875 Q614.1094,552.875 614.75,553.0313 Q615.4063,553.1875 615.9688,553.4844 L615.9688,556.2031 Q615.3438,555.625 614.75,555.3594 Q614.1563,555.0781 613.5313,555.0781 Q612.1875,555.0781 611.5,556.1563 Q610.8125,557.2188 610.8125,559.3125 Q610.8125,561.4063 611.5,562.4844 Q612.1875,563.5469 613.5313,563.5469 Q614.1563,563.5469 614.75,563.2813 Q615.3438,563 615.9688,562.4219 L615.9688,565.1406 Z "/><text fill="#000000" font-family="sans-serif" font-size="12" lengthAdjust="spacingAndGlyphs" textLength="67" x="627" y="563.6543">std::vector</text><rect fill="#FFFFFF" height="15.9688" style="stroke: #000000; stroke-width: 1.0; stroke-dasharray: 2.0,2.0;" width="135" x="702" y="540.5"/><text fill="#000000" font-family="sans-serif" font-size="12" font-style="italic" lengthAdjust="spacingAndGlyphs" textLength="133" x="703" y="552.6387">std::function&lt;void()&gt;</text><line style="stroke: #A80036; stroke-width: 1.5;" x1="599" x2="833" y1="575.5" y2="575.5"/><line style="stroke: #A80036; stroke-width: 1.5;" x1="599" x2="833" y1="583.5" y2="583.5"/><!--MD5=[4bb0c9290661c9bee4f1a4e30e18c79d]
class C_0001321469934345818324--><rect fill="#FEFECE" filter="url(#femgqbwwes5wx)" height="48" id="C_0001321469934345818324" style="stroke: #A80036; stroke-width: 1.5;" width="184" x="869" y="543.5"/><ellipse cx="884" cy="559.5" fill="#ADD1B2" rx="11" ry="11" style="stroke: #A80036; stroke-width: 1.0;"/><path d="M886.9688,565.1406 Q886.3906,565.4375 885.75,565.5781 Q885.1094,565.7344 884.4063,565.7344 Q881.9063,565.7344 880.5781,564.0938 Q879.2656,562.4375 879.2656,559.3125 Q879.2656,556.1875 880.5781,554.5313 Q881.9063,552.875 884.4063,552.875 Q885.1094,552.875 885.75,553.0313 Q886.4063,553.1875 886.9688,553.4844 L886.9688,556.2031 Q886.3438,555.625 885.75,555.3594 Q885.1563,555.0781 884.5313,555.0781 Q883.1875,555.0781 882.5,556.1563 Q881.8125,557.2188 881.8125,559.3125 Q881.8125,561.4063 882.5,562.4844 Q883.1875,563.5469 884.5313,563.5469 Q885.1563,563.5469 885.75,563.2813 Q886.3438,563 886.9688,562.4219 L886.9688,565.1406 Z "/><text fill="#000000" font-family="sans-serif" font-size="12" lengthAdjust="spacingAndGlyphs" textLength="120" x="898" y="563.6543">std::unordered_set</text><rect fill="#FFFFFF" height="15.9688" style="stroke: #000000; stroke-width: 1.0; stroke-dasharray: 2.0,2.0;" width="30" x="1026" y="540.5"/><text fill="#000000" font-family="sans-serif" font-size="12" font-style="italic" lengthAdjust="spacingAndGlyphs" textLength="28" x="1027" y="552.6387">char</text><line style="stroke: #A80036; stroke-width: 1.5;" x1="870" x2="1052" y1="575.5" y2="575.5"/><line style="stroke: #A80036; stroke-width: 1.5;" x1="870" x2="1052" y1="583.5" y2="583.5"/><!--MD5=[cd89422d2ec54194e6cddc530ae72e3b]
class C_0000953681277072310763--><rect fill="#FEFECE" filter="url(#femgqbwwes5wx)" height="94.4141" id="C_0000953681277072310763" style="stroke: #A80036; stroke-width: 1.5;" width="592" x="6" y="8"/><ellipse cx="273.25" cy="24" fill="#ADD1B2" rx="11" ry="11" style="stroke: #A80036; stroke-width: 1.0;"/><path d="M276.2188,29.6406 Q275.6406,29.9375 275,30.0781 Q274.3594,30.2344 273.6563,30.2344 Q271.1563,30.2344 269.8281,28.5938 Q268.5156,26.9375 268.5156,23.8125 Q268.5156,20.6875 269.8281,19.0313 Q271.1563,17.375 273.6563,17.375 Q274.3594,17.375 275,17.5313 Q275.6563,17.6875 276.2188,17.9844 L276.2188,20.7031 Q275.5938,20.125 275,19.8594 Q274.4063,19.5781 273.7813,19.5781 Q272.4375,19.5781 271.75,20.6563 Q271.0625,21.7188 271.0625,23.8125 Q271.0625,25.9063 271.75,26.9844 Q272.4375,28.0469 273.7813,28.0469 Q274.4063,28.0469 275,27.7813 Q275.5938,27.5 276.2188,26.9219 L276.2188,29.6406 Z "/><text fill="#000000" font-family="sans-serif" font-size="12" lengthAdjust="spacingAndGlyphs" textLength="49" x="293.75" y="28.1543">General</text><line style="stroke: #A80036; stroke-width: 1.5;" x1="7" x2="597" y1="40" y2="40"/><ellipse cx="17" cy="51" fill="#84BE84" rx="3" ry="3" style="stroke: #038048; stroke-width: 1.0;"/><text fill="#000000" font-family="sans-serif" font-size="11" lengthAdjust="spacingAndGlyphs" textLength="88" x="26" y="54.2104">General() : void</text><line style="stroke: #A80036; stroke-width: 1.0; stroke-dasharray: 1.0,2.0;" x1="7" x2="597" y1="60.8047" y2="60.8047"/><ellipse cx="17" cy="71.8047" fill="#84BE84" rx="3" ry="3" style="stroke: #038048; stroke-width: 1.0;"/><text fill="#000000" font-family="sans-serif" font-size="11" lengthAdjust="spacingAndGlyphs" text-decoration="underline" textLength="152" x="26" y="75.0151">getUserInput() : std::string</text><ellipse cx="17" cy="84.6094" fill="#84BE84" rx="3" ry="3" style="stroke: #038048; stroke-width: 1.0;"/><text fill="#000000" font-family="sans-serif" font-size="11" lengthAdjust="spacingAndGlyphs" text-decoration="underline" textLength="566" x="26" y="87.8198">printWithTypingEffect(const std::string &amp; message, unsigned int milliseconds_per_char = 50) : void</text><line style="stroke: #A80036; stroke-width: 1.5;" x1="7" x2="597" y1="94.4141" y2="94.4141"/><!--MD5=[12b20824ed12338003f3409c59805444]
class C_0001816207179164377052--><rect fill="#FEFECE" filter="url(#femgqbwwes5wx)" height="235.2656" id="C_0001816207179164377052" style="stroke: #A80036; stroke-width: 1.5;" width="259" x="303.5" y="450"/><ellipse cx="415.25" cy="466" fill="#ADD1B2" rx="11" ry="11" style="stroke: #A80036; stroke-width: 1.0;"/><path d="M418.2188,471.6406 Q417.6406,471.9375 417,472.0781 Q416.3594,472.2344 415.6563,472.2344 Q413.1563,472.2344 411.8281,470.5938 Q410.5156,468.9375 410.5156,465.8125 Q410.5156,462.6875 411.8281,461.0313 Q413.1563,459.375 415.6563,459.375 Q416.3594,459.375 417,459.5313 Q417.6563,459.6875 418.2188,459.9844 L418.2188,462.7031 Q417.5938,462.125 417,461.8594 Q416.4063,461.5781 415.7813,461.5781 Q414.4375,461.5781 413.75,462.6563 Q413.0625,463.7188 413.0625,465.8125 Q413.0625,467.9063 413.75,468.9844 Q414.4375,470.0469 415.7813,470.0469 Q416.4063,470.0469 417,469.7813 Q417.5938,469.5 418.2188,468.9219 L418.2188,471.6406 Z "/><text fill="#000000" font-family="sans-serif" font-size="12" lengthAdjust="spacingAndGlyphs" textLength="27" x="435.75" y="470.1543">Ship</text><line style="stroke: #A80036; stroke-width: 1.5;" x1="304.5" x2="561.5" y1="482" y2="482"/><ellipse cx="314.5" cy="493" fill="#84BE84" rx="3" ry="3" style="stroke: #038048; stroke-width: 1.0;"/><text fill="#000000" font-family="sans-serif" font-size="11" lengthAdjust="spacingAndGlyphs" textLength="156" x="323.5" y="496.2104">Ship(Ship::Type type) : void</text><line style="stroke: #A80036; stroke-width: 1.0; stroke-dasharray: 1.0,2.0;" x1="304.5" x2="561.5" y1="502.8047" y2="502.8047"/><ellipse cx="314.5" cy="513.8047" fill="#84BE84" rx="3" ry="3" style="stroke: #038048; stroke-width: 1.0;"/><text fill="#000000" font-family="sans-serif" font-size="11" lengthAdjust="spacingAndGlyphs" text-decoration="underline" textLength="224" x="323.5" y="517.0151">damageModifier(Ship::Type type) : float</text><ellipse cx="314.5" cy="526.6094" fill="#84BE84" rx="3" ry="3" style="stroke: #038048; stroke-width: 1.0;"/><text fill="#000000" font-family="sans-serif" font-size="11" lengthAdjust="spacingAndGlyphs" textLength="166" x="323.5" y="529.8198">earnMoney(int amount) : void</text><ellipse cx="314.5" cy="539.4141" fill="#84BE84" rx="3" ry="3" style="stroke: #038048; stroke-width: 1.0;"/><text fill="#000000" font-family="sans-serif" font-size="11" lengthAdjust="spacingAndGlyphs" text-decoration="underline" textLength="233" x="323.5" y="542.6245">escapeProbability(Ship::Type type) : float</text><ellipse cx="314.5" cy="552.2188" fill="#84BE84" rx="3" ry="3" style="stroke: #038048; stroke-width: 1.0;"/><text fill="#000000" font-family="sans-serif" font-size="11" lengthAdjust="spacingAndGlyphs" textLength="110" x="323.5" y="555.4292">getFuel() const : int</text><ellipse cx="314.5" cy="565.0234" fill="#84BE84" rx="3" ry="3" style="stroke: #038048; stroke-width: 1.0;"/><text fill="#000000" font-family="sans-serif" font-size="11" lengthAdjust="spacingAndGlyphs" textLength="123" x="323.5" y="568.2339">getHealth() const : int</text><ellipse cx="314.5" cy="577.8281" fill="#84BE84" rx="3" ry="3" style="stroke: #038048; stroke-width: 1.0;"/><text fill="#000000" font-family="sans-serif" font-size="11" lengthAdjust="spacingAndGlyphs" textLength="123" x="323.5" y="581.0386">getMoney() const : int</text><ellipse cx="314.5" cy="590.6328" fill="#84BE84" rx="3" ry="3" style="stroke: #038048; stroke-width: 1.0;"/><text fill="#000000" font-family="sans-serif" font-size="11" lengthAdjust="spacingAndGlyphs" textLength="160" x="323.5" y="593.8433">getType() const : Ship::Type</text><ellipse cx="314.5" cy="603.4375" fill="#84BE84" rx="3" ry="3" style="stroke: #038048; stroke-width: 1.0;"/><text fill="#000000" font-family="sans-serif" font-size="11" lengthAdjust="spacingAndGlyphs" textLength="137" x="323.5" y="606.6479">refuel(int amount) : void</text><ellipse cx="314.5" cy="616.2422" fill="#84BE84" rx="3" ry="3" style="stroke: #038048; stroke-width: 1.0;"/><text fill="#000000" font-family="sans-serif" font-size="11" lengthAdjust="spacingAndGlyphs" textLength="175" x="323.5" y="619.4526">takeDamage(int amount) : void</text><line style="stroke: #A80036; stroke-width: 1.5;" x1="304.5" x2="561.5" y1="626.0469" y2="626.0469"/><rect fill="none" height="6" style="stroke: #C82930; stroke-width: 1.0;" width="6" x="311.5" y="634.0469"/><text fill="#000000" font-family="sans-serif" font-size="11" lengthAdjust="spacingAndGlyphs" textLength="47" x="323.5" y="640.2573">fuel : int</text><rect fill="none" height="6" style="stroke: #C82930; stroke-width: 1.0;" width="6" x="311.5" y="646.8516"/><text fill="#000000" font-family="sans-serif" font-size="11" lengthAdjust="spacingAndGlyphs" textLength="61" x="323.5" y="653.062">health : int</text><rect fill="none" height="6" style="stroke: #C82930; stroke-width: 1.0;" width="6" x="311.5" y="659.6563"/><text fill="#000000" font-family="sans-serif" font-size="11" lengthAdjust="spacingAndGlyphs" textLength="64" x="323.5" y="665.8667">money : int</text><rect fill="none" height="6" style="stroke: #C82930; stroke-width: 1.0;" width="6" x="311.5" y="672.4609"/><text fill="#000000" font-family="sans-serif" font-size="11" lengthAdjust="spacingAndGlyphs" textLength="96" x="323.5" y="678.6714">type : Ship::Type</text><!--MD5=[36742f0c77ea66c3e248dc95bed885e8]
class C_0001156001904202383663--><rect fill="#FEFECE" filter="url(#femgqbwwes5wx)" height="86.4141" id="C_0001156001904202383663" style="stroke: #A80036; stroke-width: 1.5;" width="96" x="385" y="225"/><ellipse cx="400" cy="241" fill="#EB937F" rx="11" ry="11" style="stroke: #A80036; stroke-width: 1.0;"/><path d="M404.1094,247 L396.3906,247 L396.3906,234.6094 L404.1094,234.6094 L404.1094,236.7656 L398.8438,236.7656 L398.8438,239.4375 L403.6094,239.4375 L403.6094,241.5938 L398.8438,241.5938 L398.8438,244.8438 L404.1094,244.8438 L404.1094,247 Z "/><text fill="#000000" font-family="sans-serif" font-size="12" lengthAdjust="spacingAndGlyphs" textLength="64" x="414" y="245.1543">Ship::Type</text><line style="stroke: #A80036; stroke-width: 1.5;" x1="386" x2="480" y1="257" y2="257"/><text fill="#000000" font-family="sans-serif" font-size="11" lengthAdjust="spacingAndGlyphs" textLength="24" x="391" y="271.2104">Fast</text><text fill="#000000" font-family="sans-serif" font-size="11" lengthAdjust="spacingAndGlyphs" textLength="38" x="391" y="284.0151">Strong</text><text fill="#000000" font-family="sans-serif" font-size="11" lengthAdjust="spacingAndGlyphs" textLength="41" x="391" y="296.8198">Normal</text><line style="stroke: #A80036; stroke-width: 1.5;" x1="386" x2="480" y1="303.4141" y2="303.4141"/><!--MD5=[648a1f12a36b65ab05be653f1dbde146]
class C_0001313198784130142766--><rect fill="#FEFECE" filter="url(#femgqbwwes5wx)" height="209.6563" id="C_0001313198784130142766" style="stroke: #A80036; stroke-width: 1.5;" width="323" x="554.5" y="163"/><ellipse cx="672.25" cy="179" fill="#ADD1B2" rx="11" ry="11" style="stroke: #A80036; stroke-width: 1.0;"/><path d="M675.2188,184.6406 Q674.6406,184.9375 674,185.0781 Q673.3594,185.2344 672.6563,185.2344 Q670.1563,185.2344 668.8281,183.5938 Q667.5156,181.9375 667.5156,178.8125 Q667.5156,175.6875 668.8281,174.0313 Q670.1563,172.375 672.6563,172.375 Q673.3594,172.375 674,172.5313 Q674.6563,172.6875 675.2188,172.9844 L675.2188,175.7031 Q674.5938,175.125 674,174.8594 Q673.4063,174.5781 672.7813,174.5781 Q671.4375,174.5781 670.75,175.6563 Q670.0625,176.7188 670.0625,178.8125 Q670.0625,180.9063 670.75,181.9844 Q671.4375,183.0469 672.7813,183.0469 Q673.4063,183.0469 674,182.7813 Q674.5938,182.5 675.2188,181.9219 L675.2188,184.6406 Z "/><text fill="#000000" font-family="sans-serif" font-size="12" lengthAdjust="spacingAndGlyphs" textLength="79" x="692.75" y="183.1543">GameEngine</text><line style="stroke: #A80036; stroke-width: 1.5;" x1="555.5" x2="876.5" y1="195" y2="195"/><ellipse cx="565.5" cy="206" fill="#84BE84" rx="3" ry="3" style="stroke: #038048; stroke-width: 1.0;"/><text fill="#000000" font-family="sans-serif" font-size="11" lengthAdjust="spacingAndGlyphs" textLength="230" x="574.5" y="209.2104">GameEngine(Ship::Type shipType) : void</text><line style="stroke: #A80036; stroke-width: 1.0; stroke-dasharray: 1.0,2.0;" x1="555.5" x2="876.5" y1="215.8047" y2="215.8047"/><rect fill="#F24D5C" height="6" style="stroke: #C82930; stroke-width: 1.0;" width="6" x="562.5" y="223.8047"/><text fill="#000000" font-family="sans-serif" font-size="11" lengthAdjust="spacingAndGlyphs" textLength="187" x="574.5" y="230.0151">calculateFinalScore() const : void</text><ellipse cx="565.5" cy="239.6094" fill="#84BE84" rx="3" ry="3" style="stroke: #038048; stroke-width: 1.0;"/><text fill="#000000" font-family="sans-serif" font-size="11" lengthAdjust="spacingAndGlyphs" textLength="155" x="574.5" y="242.8198">displayStatus() const : void</text><ellipse cx="565.5" cy="252.4141" fill="#84BE84" rx="3" ry="3" style="stroke: #038048; stroke-width: 1.0;"/><text fill="#000000" font-family="sans-serif" font-size="11" lengthAdjust="spacingAndGlyphs" textLength="264" x="574.5" y="255.6245">executeEvent(GameEngine::Event event) : void</text><rect fill="#F24D5C" height="6" style="stroke: #C82930; stroke-width: 1.0;" width="6" x="562.5" y="262.2188"/><text fill="#000000" font-family="sans-serif" font-size="11" lengthAdjust="spacingAndGlyphs" textLength="179" x="574.5" y="268.4292">handleAbandonedPlanet() : void</text><rect fill="#F24D5C" height="6" style="stroke: #C82930; stroke-width: 1.0;" width="6" x="562.5" y="275.0234"/><text fill="#000000" font-family="sans-serif" font-size="11" lengthAdjust="spacingAndGlyphs" textLength="150" x="574.5" y="281.2339">handleAsteroidBelt() : void</text><rect fill="#F24D5C" height="6" style="stroke: #C82930; stroke-width: 1.0;" width="6" x="562.5" y="287.8281"/><text fill="#000000" font-family="sans-serif" font-size="11" lengthAdjust="spacingAndGlyphs" textLength="156" x="574.5" y="294.0386">handleSpacePirates() : void</text><ellipse cx="565.5" cy="303.6328" fill="#84BE84" rx="3" ry="3" style="stroke: #038048; stroke-width: 1.0;"/><text fill="#000000" font-family="sans-serif" font-size="11" lengthAdjust="spacingAndGlyphs" textLength="104" x="574.5" y="306.8433">startGame() : void</text><line style="stroke: #A80036; stroke-width: 1.5;" x1="555.5" x2="876.5" y1="313.4375" y2="313.4375"/><rect fill="none" height="6" style="stroke: #C82930; stroke-width: 1.0;" width="6" x="562.5" y="321.4375"/><text fill="#000000" font-family="sans-serif" font-size="11" lengthAdjust="spacingAndGlyphs" textLength="90" x="574.5" y="327.6479">eventCount : int</text><rect fill="#F24D5C" height="6" style="stroke: #C82930; stroke-width: 1.0;" width="6" x="562.5" y="334.2422"/><text fill="#000000" font-family="sans-serif" font-size="11" lengthAdjust="spacingAndGlyphs" textLength="297" x="574.5" y="340.4526">eventHandlers : std::vector&lt;std::function&lt;void ()&gt;&gt;</text><rect fill="none" height="6" style="stroke: #C82930; stroke-width: 1.0;" width="6" x="562.5" y="347.0469"/><text fill="#000000" font-family="sans-serif" font-size="11" lengthAdjust="spacingAndGlyphs" textLength="236" x="574.5" y="353.2573">failedActions : std::unordered_set&lt;char&gt;</text><rect fill="none" height="6" style="stroke: #C82930; stroke-width: 1.0;" width="6" x="562.5" y="359.8516"/><text fill="#000000" font-family="sans-serif" font-size="11" lengthAdjust="spacingAndGlyphs" textLength="97" x="574.5" y="366.062">playerShip : Ship</text><!--MD5=[c0e23b644ed1ad234be414706035f767]
class C_0001890209837654115577--><rect fill="#FEFECE" filter="url(#femgqbwwes5wx)" height="86.4141" id="C_0001890209837654115577" style="stroke: #A80036; stroke-width: 1.5;" width="154" x="639" y="12"/><ellipse cx="654" cy="28" fill="#EB937F" rx="11" ry="11" style="stroke: #A80036; stroke-width: 1.0;"/><path d="M658.1094,34 L650.3906,34 L650.3906,21.6094 L658.1094,21.6094 L658.1094,23.7656 L652.8438,23.7656 L652.8438,26.4375 L657.6094,26.4375 L657.6094,28.5938 L652.8438,28.5938 L652.8438,31.8438 L658.1094,31.8438 L658.1094,34 Z "/><text fill="#000000" font-family="sans-serif" font-size="12" lengthAdjust="spacingAndGlyphs" textLength="122" x="668" y="32.1543">GameEngine::Event</text><line style="stroke: #A80036; stroke-width: 1.5;" x1="640" x2="792" y1="44" y2="44"/><text fill="#000000" font-family="sans-serif" font-size="11" lengthAdjust="spacingAndGlyphs" textLength="69" x="645" y="58.2104">AsteroidBelt</text><text fill="#000000" font-family="sans-serif" font-size="11" lengthAdjust="spacingAndGlyphs" textLength="98" x="645" y="71.0151">AbandonedPlanet</text><text fill="#000000" font-family="sans-serif" font-size="11" lengthAdjust="spacingAndGlyphs" textLength="75" x="645" y="83.8198">SpacePirates</text><line style="stroke: #A80036; stroke-width: 1.5;" x1="640" x2="792" y1="90.4141" y2="90.4141"/><!--MD5=[a303d6d32173e00ae26ca218e131cda0]
link C_0001301893113309798603 to C_0001660784356362272037--><path d="M716,591.89 C716,628.87 716,700.7 716,740.58 " fill="none" id="C_0001301893113309798603-&gt;C_0001660784356362272037" style="stroke: #A80036; stroke-width: 1.0; stroke-dasharray: 7.0,7.0;"/><polygon fill="#A80036" points="716,745.76,720,736.76,716,740.76,712,736.76,716,745.76" style="stroke: #A80036; stroke-width: 1.0;"/><!--MD5=[a19566dcce9e8e70ee9cbc2eebad9d63]
link C_0000953681277072310763 to C_0000159384585232022465--><path d="M302,102.04 C302,143.6 302,203.42 302,238.44 " fill="none" id="C_0000953681277072310763-&gt;C_0000159384585232022465" style="stroke: #A80036; stroke-width: 1.0; stroke-dasharray: 7.0,7.0;"/><polygon fill="#A80036" points="302,243.84,306,234.84,302,238.84,298,234.84,302,243.84" style="stroke: #A80036; stroke-width: 1.0;"/><!--MD5=[e2f62914546a4d691f8a3db282c5d492]
link C_0001156001904202383663 to C_0001816207179164377052--><path d="M433,311.31 C433,343.67 433,390.14 433,434.58 " fill="none" id="C_0001156001904202383663-&gt;C_0001816207179164377052" style="stroke: #A80036; stroke-width: 1.0;"/><ellipse cx="433" cy="441.86" fill="#FFFFFF" rx="8" ry="8" style="stroke: #A80036; stroke-width: 1.0;"/><line style="stroke: #A80036; stroke-width: 1.0;" x1="433" x2="433" y1="433.86" y2="449.86"/><line style="stroke: #A80036; stroke-width: 1.0;" x1="441" x2="425" y1="441.86" y2="441.86"/><!--MD5=[8294bd62252d63933bd95d6c5c0a3ad6]
reverse link C_0001313198784130142766 to C_0001816207179164377052--><path d="M607.82,382.73 C586.92,404.69 565,427.74 544.01,449.8 " fill="none" id="C_0001313198784130142766&lt;-C_0001816207179164377052" style="stroke: #A80036; stroke-width: 1.0;"/><polygon fill="#FFFFFF" points="617.02,373.05,609.9862,374.6394,608.7481,381.7434,615.7818,380.154,617.02,373.05" style="stroke: #A80036; stroke-width: 1.0;"/><rect fill="none" height="6" style="stroke: #C82930; stroke-width: 1.0;" width="6" x="586" y="409.0664"/><text fill="#000000" font-family="sans-serif" font-size="13" lengthAdjust="spacingAndGlyphs" textLength="67" x="596" y="416.0669">playerShip</text><!--MD5=[4bf5726f58a8f3bd4fb7d60eeffa66d8]
reverse link C_0001313198784130142766 to C_0001301893113309798603--><path d="M716,386.14 C716,444.39 716,509.44 716,543.24 " fill="none" id="C_0001313198784130142766&lt;-C_0001301893113309798603" style="stroke: #A80036; stroke-width: 1.0;"/><polygon fill="#FFFFFF" points="716,373.05,712,379.05,716,385.05,720,379.05,716,373.05" style="stroke: #A80036; stroke-width: 1.0;"/><rect fill="none" height="6" style="stroke: #C82930; stroke-width: 1.0;" width="6" x="719" y="409.0664"/><text fill="#000000" font-family="sans-serif" font-size="13" lengthAdjust="spacingAndGlyphs" textLength="93" x="729" y="416.0669">eventHandlers</text><!--MD5=[b5507a799ce46a7ee9d48fe1483dc8dd]
reverse link C_0001313198784130142766 to C_0001321469934345818324--><path d="M814.83,383.59 C820.33,390.14 825.75,396.64 831,403 C871.77,452.34 918.12,511.37 942.97,543.27 " fill="none" id="C_0001313198784130142766&lt;-C_0001321469934345818324" style="stroke: #A80036; stroke-width: 1.0;"/><polygon fill="#FFFFFF" points="806.16,373.29,806.9645,380.4561,813.8888,382.4696,813.0843,375.3035,806.16,373.29" style="stroke: #A80036; stroke-width: 1.0;"/><rect fill="none" height="6" style="stroke: #C82930; stroke-width: 1.0;" width="6" x="844" y="409.0664"/><text fill="#000000" font-family="sans-serif" font-size="13" lengthAdjust="spacingAndGlyphs" textLength="81" x="854" y="416.0669">failedActions</text><!--MD5=[4dd92176f1ff212960b5fc30697c2f7b]
link C_0001890209837654115577 to C_0001313198784130142766--><path d="M716,98.19 C716,112.85 716,130.09 716,147.86 " fill="none" id="C_0001890209837654115577-&gt;C_0001313198784130142766" style="stroke: #A80036; stroke-width: 1.0;"/><ellipse cx="716" cy="154.87" fill="#FFFFFF" rx="8" ry="8" style="stroke: #A80036; stroke-width: 1.0;"/><line style="stroke: #A80036; stroke-width: 1.0;" x1="716" x2="716" y1="146.87" y2="162.87"/><line style="stroke: #A80036; stroke-width: 1.0;" x1="724" x2="708" y1="154.87" y2="154.87"/><!--MD5=[b6c1758d55b1a12594e9942dedcab932]
@startuml
class "std::string" as C_0000159384585232022465
class C_0000159384585232022465 {
__
}
class "std::function<void()>" as C_0001660784356362272037
class C_0001660784356362272037 {
__
}
class "std::vector<std::function<void()>>" as C_0001301893113309798603
class C_0001301893113309798603 {
__
}
class "std::unordered_set<char>" as C_0001321469934345818324
class C_0001321469934345818324 {
__
}
class "General" as C_0000953681277072310763
class C_0000953681277072310763 {
+General() : void
..
{static} +getUserInput() : std::string
{static} +printWithTypingEffect(const std::string & message, unsigned int milliseconds_per_char = 50) : void
__
}
class "Ship" as C_0001816207179164377052
class C_0001816207179164377052 {
+Ship(Ship::Type type) : void
..
{static} +damageModifier(Ship::Type type) : float
+earnMoney(int amount) : void
{static} +escapeProbability(Ship::Type type) : float
+getFuel() const : int
+getHealth() const : int
+getMoney() const : int
+getType() const : Ship::Type
+refuel(int amount) : void
+takeDamage(int amount) : void
__
-fuel : int
-health : int
-money : int
-type : Ship::Type
}
enum "Ship::Type" as C_0001156001904202383663
enum C_0001156001904202383663 {
Fast
Strong
Normal
}
class "GameEngine" as C_0001313198784130142766
class C_0001313198784130142766 {
+GameEngine(Ship::Type shipType) : void
..
-calculateFinalScore() const : void
+displayStatus() const : void
+executeEvent(GameEngine::Event event) : void
-handleAbandonedPlanet() : void
-handleAsteroidBelt() : void
-handleSpacePirates() : void
+startGame() : void
__
-eventCount : int
-eventHandlers : std::vector<std::function<void ()>>
-failedActions : std::unordered_set<char>
-playerShip : Ship
}
enum "GameEngine::Event" as C_0001890209837654115577
enum C_0001890209837654115577 {
AsteroidBelt
AbandonedPlanet
SpacePirates
}
C_0001301893113309798603 ..> C_0001660784356362272037
C_0000953681277072310763 ..> C_0000159384585232022465
C_0001156001904202383663 - -+ C_0001816207179164377052
C_0001313198784130142766 o- - C_0001816207179164377052 : -playerShip
C_0001313198784130142766 o- - C_0001301893113309798603 : -eventHandlers
C_0001313198784130142766 o- - C_0001321469934345818324 : -failedActions
C_0001890209837654115577 - -+ C_0001313198784130142766

@enduml

PlantUML version 1.2020.02(Sun Mar 01 13:22:07 TRT 2020)
(GPL source distribution)
Java Runtime: OpenJDK Runtime Environment
JVM: OpenJDK 64-Bit Server VM
Java Version: 17.0.9+9-Ubuntu-122.04
Operating System: Linux
Default Encoding: UTF-8
Language: en
Country: US
--></g></svg>