<?xml version="1.0" encoding="UTF-8" standalone="no"?><svg xmlns="http://www.w3.org/2000/svg" xmlns:xlink="http://www.w3.org/1999/xlink" contentScriptType="application/ecmascript" contentStyleType="text/css" height="344px" preserveAspectRatio="none" style="width:1012px;height:344px;" version="1.1" viewBox="0 0 1012 344" width="1012px" zoomAndPan="magnify"><defs><filter height="300%" id="fl91for588qab" width="300%" x="-1" y="-1"><feGaussianBlur result="blurOut" stdDeviation="2.0"/><feColorMatrix in="blurOut" result="blurOut2" type="matrix" values="0 0 0 0 0 0 0 0 0 0 0 0 0 0 0 0 0 0 .4 0"/><feOffset dx="4.0" dy="4.0" in="blurOut2" result="blurOut3"/><feBlend in="SourceGraphic" in2="blurOut3" mode="normal"/></filter></defs><g><!--MD5=[295c2a3cd0af782a22c8a4932c1b1be5]
entity C_0002130200862975514115--><polygon fill="#FEFECE" filter="url(#fl91for588qab)" points="531,8,531,44.2969,614,44.2969,614,18,604,8,531,8" style="stroke: #000000; stroke-width: 1.5;"/><path d="M604,8 L604,18 L614,18 " fill="#FEFECE" style="stroke: #000000; stroke-width: 1.5;"/><text fill="#000000" font-family="sans-serif" font-size="14" lengthAdjust="spacingAndGlyphs" textLength="63" x="541" y="30.9951">main.cpp</text><!--MD5=[eff4440bc2c320daa9b8e967b033ea95]
entity C_0000559385893872816866--><polygon fill="#FEFECE" filter="url(#fl91for588qab)" points="262.5,104,262.5,140.2969,334.5,140.2969,334.5,114,324.5,104,262.5,104" style="stroke: #000000; stroke-width: 1.5;"/><path d="M324.5,104 L324.5,114 L334.5,114 " fill="#FEFECE" style="stroke: #000000; stroke-width: 1.5;"/><text fill="#000000" font-family="sans-serif" font-size="14" lengthAdjust="spacingAndGlyphs" textLength="52" x="272.5" y="126.9951">game.h</text><!--MD5=[194fc77d38f1482d1d9eb08899b5c4b7]
entity C_0000274807788688184917--><polygon fill="#FEFECE" filter="url(#fl91for588qab)" points="262.5,200,262.5,236.2969,334.5,236.2969,334.5,210,324.5,200,262.5,200" style="stroke: #000000; stroke-width: 1.5;"/><path d="M324.5,200 L324.5,210 L334.5,210 " fill="#FEFECE" style="stroke: #000000; stroke-width: 1.5;"/><text fill="#000000" font-family="sans-serif" font-size="14" lengthAdjust="spacingAndGlyphs" textLength="52" x="272.5" y="222.9951">event.h</text><!--MD5=[8a992968c355c51e76b0ffc1ef15ac27]
entity C_0000655197987415544785--><polygon fill="#FEFECE" filter="url(#fl91for588qab)" points="142.5,296,142.5,332.2969,204.5,332.2969,204.5,306,194.5,296,142.5,296" style="stroke: #000000; stroke-width: 1.5;"/><path d="M194.5,296 L194.5,306 L204.5,306 " fill="#FEFECE" style="stroke: #000000; stroke-width: 1.5;"/><text fill="#000000" font-family="sans-serif" font-size="14" lengthAdjust="spacingAndGlyphs" textLength="42" x="152.5" y="318.9951">ship.h</text><!--MD5=[95887f67cc5aee0f97e89660237dbb62]
entity C_0000033778637743187985--><polygon fill="#FEFECE" filter="url(#fl91for588qab)" points="645,200,645,236.2969,766,236.2969,766,210,756,200,645,200" style="stroke: #000000; stroke-width: 1.5;"/><path d="M756,200 L756,210 L766,210 " fill="#FEFECE" style="stroke: #000000; stroke-width: 1.5;"/><text fill="#000000" font-family="sans-serif" font-size="14" lengthAdjust="spacingAndGlyphs" textLength="101" x="655" y="222.9951">GeneralFunc.h</text><!--MD5=[7486a7f7e751f09962117aebf1103f9c]
entity C_0001093438228260202116--><polygon fill="#FEFECE" filter="url(#fl91for588qab)" points="809.5,104,809.5,140.2969,929.5,140.2969,929.5,114,919.5,104,809.5,104" style="stroke: #000000; stroke-width: 1.5;"/><path d="M919.5,104 L919.5,114 L929.5,114 " fill="#FEFECE" style="stroke: #000000; stroke-width: 1.5;"/><text fill="#000000" font-family="sans-serif" font-size="14" lengthAdjust="spacingAndGlyphs" textLength="100" x="819.5" y="126.9951">GameStarter.h</text><!--MD5=[f8568e8c555c8e18a45acd9557177b89]
entity C_0000359915024976146625--><polygon fill="#FEFECE" filter="url(#fl91for588qab)" points="254,8,254,44.2969,343,44.2969,343,18,333,8,254,8" style="stroke: #000000; stroke-width: 1.5;"/><path d="M333,8 L333,18 L343,18 " fill="#FEFECE" style="stroke: #000000; stroke-width: 1.5;"/><text fill="#000000" font-family="sans-serif" font-size="14" lengthAdjust="spacingAndGlyphs" textLength="69" x="264" y="30.9951">game.cpp</text><!--MD5=[d349c74fca28dd294bee7c2e7c382e93]
entity C_0000118048584835853573--><polygon fill="#FEFECE" filter="url(#fl91for588qab)" points="636.5,104,636.5,140.2969,774.5,140.2969,774.5,114,764.5,104,636.5,104" style="stroke: #000000; stroke-width: 1.5;"/><path d="M764.5,104 L764.5,114 L774.5,114 " fill="#FEFECE" style="stroke: #000000; stroke-width: 1.5;"/><text fill="#000000" font-family="sans-serif" font-size="14" lengthAdjust="spacingAndGlyphs" textLength="118" x="646.5" y="126.9951">GeneralFunc.cpp</text><!--MD5=[e292ad28fac2597c9b410a11c2652339]
entity C_0002045032672445039438--><polygon fill="#FEFECE" filter="url(#fl91for588qab)" points="801,8,801,44.2969,938,44.2969,938,18,928,8,801,8" style="stroke: #000000; stroke-width: 1.5;"/><path d="M928,8 L928,18 L938,18 " fill="#FEFECE" style="stroke: #000000; stroke-width: 1.5;"/><text fill="#000000" font-family="sans-serif" font-size="14" lengthAdjust="spacingAndGlyphs" textLength="117" x="811" y="30.9951">GameStarter.cpp</text><!--MD5=[fb08e7133aff5d27cd81ade0f4f56ecd]
entity C_0001671392704524004136--><polygon fill="#FEFECE" filter="url(#fl91for588qab)" points="441,104,441,140.2969,530,140.2969,530,114,520,104,441,104" style="stroke: #000000; stroke-width: 1.5;"/><path d="M520,104 L520,114 L530,114 " fill="#FEFECE" style="stroke: #000000; stroke-width: 1.5;"/><text fill="#000000" font-family="sans-serif" font-size="14" lengthAdjust="spacingAndGlyphs" textLength="69" x="451" y="126.9951">event.cpp</text><!--MD5=[ce9c32a07c984477d27dbfcf9ec96f2f]
entity C_0001884044053258324238--><polygon fill="#FEFECE" filter="url(#fl91for588qab)" points="6,200,6,236.2969,85,236.2969,85,210,75,200,6,200" style="stroke: #000000; stroke-width: 1.5;"/><path d="M75,200 L75,210 L85,210 " fill="#FEFECE" style="stroke: #000000; stroke-width: 1.5;"/><text fill="#000000" font-family="sans-serif" font-size="14" lengthAdjust="spacingAndGlyphs" textLength="59" x="16" y="222.9951">ship.cpp</text><!--MD5=[0610651407d4a0e6c6605985122ab6bb]
link C_0002130200862975514115 to C_0000559385893872816866--><path d="M530.89,41.28 C479.11,59.04 391.25,89.18 339.68,106.87 " fill="none" id="C_0002130200862975514115-&gt;C_0000559385893872816866" style="stroke: #A80036; stroke-width: 1.0;"/><polygon fill="#A80036" points="334.8,108.55,344.612,109.4012,339.5275,106.9218,342.0069,101.8373,334.8,108.55" style="stroke: #A80036; stroke-width: 1.0;"/><!--MD5=[33cc83bd6f9be7e5b6c86abce78707ac]
link C_0002130200862975514115 to C_0000033778637743187985--><path d="M614.11,29.15 C702.8,34.7 905.76,52.82 947.5,104 C1000.21,168.63 859.41,198.22 770.99,210.11 " fill="none" id="C_0002130200862975514115-&gt;C_0000033778637743187985" style="stroke: #A80036; stroke-width: 1.0;"/><polygon fill="#A80036" points="766.03,210.76,775.4776,213.5426,770.9866,210.1029,774.4263,205.612,766.03,210.76" style="stroke: #A80036; stroke-width: 1.0;"/><!--MD5=[c87bdefe5717788e49891f2c8a2c3d57]
link C_0002130200862975514115 to C_0000274807788688184917--><path d="M532.97,44.02 C501.99,58.15 458.44,79.79 423.5,104 C383.1,132 341.89,171.92 318.33,196.05 " fill="none" id="C_0002130200862975514115-&gt;C_0000274807788688184917" style="stroke: #A80036; stroke-width: 1.0;"/><polygon fill="#A80036" points="314.71,199.78,323.8515,196.1148,318.1952,196.1948,318.1152,190.5385,314.71,199.78" style="stroke: #A80036; stroke-width: 1.0;"/><!--MD5=[6e643f0a49ea8275405b7a86fcbb7cce]
link C_0002130200862975514115 to C_0001093438228260202116--><path d="M614.11,40.17 C665.35,56.39 752.72,84.04 810.78,102.41 " fill="none" id="C_0002130200862975514115-&gt;C_0001093438228260202116" style="stroke: #A80036; stroke-width: 1.0;"/><polygon fill="#A80036" points="815.6,103.94,808.2139,97.425,810.8301,102.4405,805.8147,105.0568,815.6,103.94" style="stroke: #A80036; stroke-width: 1.0;"/><!--MD5=[68f6023f74032866d902a20aaaef6c43]
link C_0000559385893872816866 to C_0000274807788688184917--><path d="M298.5,140.24 C298.5,155.48 298.5,177.81 298.5,194.46 " fill="none" id="C_0000559385893872816866-&gt;C_0000274807788688184917" style="stroke: #A80036; stroke-width: 1.0;"/><polygon fill="#A80036" points="298.5,199.87,302.5,190.87,298.5,194.87,294.5,190.87,298.5,199.87" style="stroke: #A80036; stroke-width: 1.0;"/><!--MD5=[f98c0b94d4828b494e7606413a874f00]
link C_0000559385893872816866 to C_0000655197987415544785--><path d="M286.54,140.01 C275.68,155.53 259.3,179.16 245.5,200 C224.66,231.45 201.33,268.41 187.03,291.27 " fill="none" id="C_0000559385893872816866-&gt;C_0000655197987415544785" style="stroke: #A80036; stroke-width: 1.0;"/><polygon fill="#A80036" points="184.29,295.65,192.4653,290.1578,186.9503,291.4164,185.6916,285.9014,184.29,295.65" style="stroke: #A80036; stroke-width: 1.0;"/><!--MD5=[e16cedccad648222d6fdfaa50982ea4f]
link C_0000274807788688184917 to C_0000655197987415544785--><path d="M275.86,236.02 C254.67,251.96 222.98,275.79 200.48,292.71 " fill="none" id="C_0000274807788688184917-&gt;C_0000655197987415544785" style="stroke: #A80036; stroke-width: 1.0;"/><polygon fill="#A80036" points="196.39,295.79,205.985,293.5681,200.3831,292.7809,201.1704,287.1791,196.39,295.79" style="stroke: #A80036; stroke-width: 1.0;"/><!--MD5=[5c8b61e3a1954886537767fc8243d341]
link C_0001093438228260202116 to C_0000033778637743187985--><path d="M839.8,140.02 C811.68,156.14 769.46,180.34 739.89,197.29 " fill="none" id="C_0001093438228260202116-&gt;C_0000033778637743187985" style="stroke: #A80036; stroke-width: 1.0;"/><polygon fill="#A80036" points="735.25,199.95,745.048,198.9508,739.5895,197.4662,741.074,192.0077,735.25,199.95" style="stroke: #A80036; stroke-width: 1.0;"/><!--MD5=[2659f663d5737dd00e85c4ccf581c4f0]
link C_0000359915024976146625 to C_0000559385893872816866--><path d="M298.5,44.24 C298.5,59.48 298.5,81.81 298.5,98.46 " fill="none" id="C_0000359915024976146625-&gt;C_0000559385893872816866" style="stroke: #A80036; stroke-width: 1.0;"/><polygon fill="#A80036" points="298.5,103.87,302.5,94.87,298.5,98.87,294.5,94.87,298.5,103.87" style="stroke: #A80036; stroke-width: 1.0;"/><!--MD5=[445ff7ddcf566516f62fecdd9ad279cb]
link C_0000359915024976146625 to C_0000655197987415544785--><path d="M280.36,44.06 C265.78,58.69 245.78,81 233.5,104 C199.81,167.11 183.12,251.3 176.72,290.79 " fill="none" id="C_0000359915024976146625-&gt;C_0000655197987415544785" style="stroke: #A80036; stroke-width: 1.0;"/><polygon fill="#A80036" points="175.92,295.83,181.2833,287.5696,176.7049,290.892,173.3825,286.3136,175.92,295.83" style="stroke: #A80036; stroke-width: 1.0;"/><!--MD5=[4dcaa29fab104752ab97b4d73243d698]
link C_0000359915024976146625 to C_0000274807788688184917--><path d="M282.23,44.01 C269.46,58.61 252.68,80.91 245.5,104 C240.75,119.28 240.75,124.72 245.5,140 C252.06,161.11 266.64,181.55 278.85,196.06 " fill="none" id="C_0000359915024976146625-&gt;C_0000274807788688184917" style="stroke: #A80036; stroke-width: 1.0;"/><polygon fill="#A80036" points="282.23,199.99,279.4099,190.5535,278.976,196.1937,273.3359,195.7599,282.23,199.99" style="stroke: #A80036; stroke-width: 1.0;"/><!--MD5=[db22703c2f7f2345ce74438653e271fc]
link C_0000359915024976146625 to C_0000033778637743187985--><path d="M343.31,36.28 C394.47,47.89 479.8,70.43 547.5,104 C599.26,129.67 652.5,171.58 682.06,196.51 " fill="none" id="C_0000359915024976146625-&gt;C_0000033778637743187985" style="stroke: #A80036; stroke-width: 1.0;"/><polygon fill="#A80036" points="685.89,199.76,681.6048,190.8923,682.0736,196.5296,676.4362,196.9985,685.89,199.76" style="stroke: #A80036; stroke-width: 1.0;"/><!--MD5=[2929513537171fff185e10cbaa7ef25c]
link C_0000359915024976146625 to C_0001093438228260202116--><path d="M343.28,33.02 C430.18,44.92 627.65,72.99 792.5,104 C796.38,104.73 800.36,105.51 804.37,106.32 " fill="none" id="C_0000359915024976146625-&gt;C_0001093438228260202116" style="stroke: #A80036; stroke-width: 1.0;"/><polygon fill="#A80036" points="809.46,107.36,801.4416,101.6411,804.561,106.3602,799.8419,109.4796,809.46,107.36" style="stroke: #A80036; stroke-width: 1.0;"/><!--MD5=[1ce0b31da0208cedad2d7053ef16d1ac]
link C_0000118048584835853573 to C_0000033778637743187985--><path d="M705.5,140.24 C705.5,155.48 705.5,177.81 705.5,194.46 " fill="none" id="C_0000118048584835853573-&gt;C_0000033778637743187985" style="stroke: #A80036; stroke-width: 1.0;"/><polygon fill="#A80036" points="705.5,199.87,709.5,190.87,705.5,194.87,701.5,190.87,705.5,199.87" style="stroke: #A80036; stroke-width: 1.0;"/><!--MD5=[9a6c93f3ea0cb3016cb7c06d5a7c857f]
link C_0002045032672445039438 to C_0001093438228260202116--><path d="M869.5,44.24 C869.5,59.48 869.5,81.81 869.5,98.46 " fill="none" id="C_0002045032672445039438-&gt;C_0001093438228260202116" style="stroke: #A80036; stroke-width: 1.0;"/><polygon fill="#A80036" points="869.5,103.87,873.5,94.87,869.5,98.87,865.5,94.87,869.5,103.87" style="stroke: #A80036; stroke-width: 1.0;"/><!--MD5=[7cfea0f9caaa4554d412c452b92f0ea7]
link C_0001671392704524004136 to C_0000274807788688184917--><path d="M451.64,140.02 C419.43,156.21 371.04,180.54 337.3,197.5 " fill="none" id="C_0001671392704524004136-&gt;C_0000274807788688184917" style="stroke: #A80036; stroke-width: 1.0;"/><polygon fill="#A80036" points="332.43,199.95,342.2675,199.4776,336.8964,197.7025,338.6715,192.3314,332.43,199.95" style="stroke: #A80036; stroke-width: 1.0;"/><!--MD5=[18eab742ae8b3d3894f4206b06133e25]
link C_0001671392704524004136 to C_0000033778637743187985--><path d="M525.34,140.02 C563.54,156.34 621.1,180.94 660.83,197.91 " fill="none" id="C_0001671392704524004136-&gt;C_0000033778637743187985" style="stroke: #A80036; stroke-width: 1.0;"/><polygon fill="#A80036" points="665.58,199.95,658.8644,192.7458,660.9791,197.9925,655.7324,200.1072,665.58,199.95" style="stroke: #A80036; stroke-width: 1.0;"/><!--MD5=[2e3b60d47cbb24d0808c3373c64c9a67]
link C_0001884044053258324238 to C_0000655197987415544785--><path d="M68.68,236.02 C90.38,251.96 122.83,275.79 145.87,292.71 " fill="none" id="C_0001884044053258324238-&gt;C_0000655197987415544785" style="stroke: #A80036; stroke-width: 1.0;"/><polygon fill="#A80036" points="150.06,295.79,145.1914,287.2286,146.0362,292.8221,140.4427,293.6668,150.06,295.79" style="stroke: #A80036; stroke-width: 1.0;"/><!--MD5=[1bbe8b74db1c57829e5be2321ed1918c]
@startuml
file "main.cpp" as C_0002130200862975514115
file "game.h" as C_0000559385893872816866
file "event.h" as C_0000274807788688184917
file "ship.h" as C_0000655197987415544785
file "GeneralFunc.h" as C_0000033778637743187985
file "GameStarter.h" as C_0001093438228260202116
file "game.cpp" as C_0000359915024976146625
file "GeneralFunc.cpp" as C_0000118048584835853573
file "GameStarter.cpp" as C_0002045032672445039438
file "event.cpp" as C_0001671392704524004136
file "ship.cpp" as C_0001884044053258324238
C_0002130200862975514115 - -> C_0000559385893872816866
C_0002130200862975514115 - -> C_0000033778637743187985
C_0002130200862975514115 - -> C_0000274807788688184917
C_0002130200862975514115 - -> C_0001093438228260202116
C_0000559385893872816866 - -> C_0000274807788688184917
C_0000559385893872816866 - -> C_0000655197987415544785
C_0000274807788688184917 - -> C_0000655197987415544785
C_0001093438228260202116 - -> C_0000033778637743187985
C_0000359915024976146625 - -> C_0000559385893872816866
C_0000359915024976146625 - -> C_0000655197987415544785
C_0000359915024976146625 - -> C_0000274807788688184917
C_0000359915024976146625 - -> C_0000033778637743187985
C_0000359915024976146625 - -> C_0001093438228260202116
C_0000118048584835853573 - -> C_0000033778637743187985
C_0002045032672445039438 - -> C_0001093438228260202116
C_0001671392704524004136 - -> C_0000274807788688184917
C_0001671392704524004136 - -> C_0000033778637743187985
C_0001884044053258324238 - -> C_0000655197987415544785

@enduml

PlantUML version 1.2020.02(Sun Mar 01 13:22:07 TRT 2020)
(GPL source distribution)
Java Runtime: OpenJDK Runtime Environment
JVM: OpenJDK 64-Bit Server VM
Java Version: 17.0.10+7-Ubuntu-122.04.1
Operating System: Linux
Default Encoding: UTF-8
Language: en
Country: US
--></g></svg>